<svg width="12" height="12" viewBox="0 0 12 12" fill="none" xmlns="http://www.w3.org/2000/svg">
<path d="M6 3.27273C4.49455 3.27273 3.27273 4.49455 3.27273 6C3.27273 7.50545 4.49455 8.72727 6 8.72727C7.50545 8.72727 8.72727 7.50545 8.72727 6C8.72727 4.49455 7.50545 3.27273 6 3.27273ZM0.545455 6.54545H1.63636C1.93636 6.54545 2.18182 6.3 2.18182 6C2.18182 5.7 1.93636 5.45455 1.63636 5.45455H0.545455C0.245455 5.45455 0 5.7 0 6C0 6.3 0.245455 6.54545 0.545455 6.54545ZM10.3636 6.54545H11.4545C11.7545 6.54545 12 6.3 12 6C12 5.7 11.7545 5.45455 11.4545 5.45455H10.3636C10.0636 5.45455 9.81818 5.7 9.81818 6C9.81818 6.3 10.0636 6.54545 10.3636 6.54545ZM5.45455 0.545455V1.63636C5.45455 1.93636 5.7 2.18182 6 2.18182C6.3 2.18182 6.54545 1.93636 6.54545 1.63636V0.545455C6.54545 0.245455 6.3 0 6 0C5.7 0 5.45455 0.245455 5.45455 0.545455ZM5.45455 10.3636V11.4545C5.45455 11.7545 5.7 12 6 12C6.3 12 6.54545 11.7545 6.54545 11.4545V10.3636C6.54545 10.0636 6.3 9.81818 6 9.81818C5.7 9.81818 5.45455 10.0636 5.45455 10.3636ZM2.72182 1.95273C2.50909 1.74 2.16 1.74 1.95273 1.95273C1.74 2.16545 1.74 2.51455 1.95273 2.72182L2.53091 3.3C2.74364 3.51273 3.09273 3.51273 3.3 3.3C3.50727 3.08727 3.51273 2.73818 3.3 2.53091L2.72182 1.95273ZM9.46909 8.7C9.25636 8.48727 8.90727 8.48727 8.7 8.7C8.48727 8.91273 8.48727 9.26182 8.7 9.46909L9.27818 10.0473C9.49091 10.26 9.84 10.26 10.0473 10.0473C10.26 9.83454 10.26 9.48545 10.0473 9.27818L9.46909 8.7ZM10.0473 2.72182C10.26 2.50909 10.26 2.16 10.0473 1.95273C9.83455 1.74 9.48545 1.74 9.27818 1.95273L8.7 2.53091C8.48727 2.74364 8.48727 3.09273 8.7 3.3C8.91273 3.50727 9.26182 3.51273 9.46909 3.3L10.0473 2.72182ZM3.3 9.46909C3.51273 9.25636 3.51273 8.90727 3.3 8.7C3.08727 8.48727 2.73818 8.48727 2.53091 8.7L1.95273 9.27818C1.74 9.49091 1.74 9.84 1.95273 10.0473C2.16545 10.2545 2.51455 10.26 2.72182 10.0473L3.3 9.46909Z" fill="#1B3513"/>
</svg>
