<svg width="85" height="85" viewBox="0 0 85 85" fill="none" xmlns="http://www.w3.org/2000/svg">
<path d="M78.1059 0H6.85139C5.95165 0 5.06073 0.177306 4.22948 0.521794C3.39823 0.866281 2.64294 1.37121 2.00673 2.00774C0.721841 3.29327 0 5.03682 0 6.85484V61.6935C0 63.5116 0.721841 65.2551 2.00673 66.5407C2.64294 67.1772 3.39823 67.6821 4.22948 68.0266C5.06073 68.3711 5.95165 68.5484 6.85139 68.5484H28.3922L26.3367 76.7742H24.665C23.2113 76.7742 21.8172 77.352 20.7893 78.3804C19.7614 79.4088 19.1839 80.8037 19.1839 82.2581V83.629C19.1839 83.9926 19.3283 84.3413 19.5852 84.5985C19.8422 84.8556 20.1908 85 20.5542 85H64.4031C64.7665 85 65.115 84.8556 65.372 84.5985C65.629 84.3413 65.7734 83.9926 65.7734 83.629V82.2581C65.7734 80.8037 65.1959 79.4088 64.168 78.3804C63.1401 77.352 61.7459 76.7742 60.2922 76.7742H58.6205L56.5651 68.5484H78.1059C79.923 68.5484 81.6656 67.8262 82.9505 66.5407C84.2354 65.2551 84.9573 63.5116 84.9573 61.6935V6.85484C84.9573 5.95465 84.78 5.06327 84.4357 4.23161C84.0914 3.39994 83.5867 2.64427 82.9505 2.00774C82.3143 1.37121 81.559 0.866281 80.7278 0.521794C79.8965 0.177306 79.0056 0 78.1059 0ZM63.0328 82.2581H21.9245C21.9245 81.5309 22.2132 80.8334 22.7271 80.3192C23.2411 79.805 23.9382 79.5161 24.665 79.5161H60.2922C61.0191 79.5161 61.7162 79.805 62.2301 80.3192C62.7441 80.8334 63.0328 81.5309 63.0328 82.2581ZM55.7977 76.7742H29.1595L31.2149 68.5484H53.7423L55.7977 76.7742ZM82.2167 61.6935C82.2167 62.7844 81.7836 63.8305 81.0127 64.6018C80.2417 65.3731 79.1961 65.8065 78.1059 65.8065H6.85139C5.76113 65.8065 4.71552 65.3731 3.94459 64.6018C3.17366 63.8305 2.74056 62.7844 2.74056 61.6935V6.85484C2.74056 5.76403 3.17366 4.7179 3.94459 3.94658C4.71552 3.17526 5.76113 2.74194 6.85139 2.74194H78.1059C79.1961 2.74194 80.2417 3.17526 81.0127 3.94658C81.7836 4.7179 82.2167 5.76403 82.2167 6.85484V61.6935Z" fill="#E6CC46"/>
<path d="M78.1059 5.48389H6.85148C6.48806 5.48389 6.13952 5.62833 5.88255 5.88543C5.62557 6.14254 5.4812 6.49125 5.4812 6.85485V56.2097C5.4812 56.5733 5.62557 56.922 5.88255 57.1791C6.13952 57.4362 6.48806 57.5807 6.85148 57.5807H78.1059C78.4694 57.5807 78.8179 57.4362 79.0749 57.1791C79.3319 56.922 79.4762 56.5733 79.4762 56.2097V6.85485C79.4762 6.49125 79.3319 6.14254 79.0749 5.88543C78.8179 5.62833 78.4694 5.48389 78.1059 5.48389ZM76.7357 54.8387H8.22176V8.22582H76.7357V54.8387Z" fill="#E6CC46"/>
<path d="M76.7357 60.3228H73.9951V63.0647H76.7357V60.3228Z" fill="#E6CC46"/>
<path d="M71.2545 60.3228H68.5139V63.0647H71.2545V60.3228Z" fill="#E6CC46"/>
<path d="M17.8136 41.1289H67.1437C67.5071 41.1289 67.8556 40.9844 68.1126 40.7273C68.3696 40.4702 68.5139 40.1215 68.5139 39.7579V31.5321C68.5139 31.1685 68.3696 30.8198 68.1126 30.5627C67.8556 30.3056 67.5071 30.1611 67.1437 30.1611H17.8136C17.4502 30.1611 17.1017 30.3056 16.8447 30.5627C16.5877 30.8198 16.4434 31.1685 16.4434 31.5321V39.7579C16.4434 40.1215 16.5877 40.4702 16.8447 40.7273C17.1017 40.9844 17.4502 41.1289 17.8136 41.1289ZM41.1084 35.645V32.9031H43.8489V35.645H46.5895V32.9031H49.33V38.3869H35.6273V32.9031H38.3678V35.645H41.1084ZM65.7734 38.3869H52.0706V32.9031H54.8112V35.645H57.5517V32.9031H60.2923V35.645H63.0328V32.9031H65.7734V38.3869ZM19.1839 32.9031H21.9245V35.645H24.665V32.9031H27.4056V35.645H30.1461V32.9031H32.8867V38.3869H19.1839V32.9031Z" fill="#E6CC46"/>
<path d="M61.6624 24.6775C63.0175 24.6775 64.3422 24.2754 65.4689 23.5222C66.5956 22.769 67.4737 21.6984 67.9923 20.4458C68.5109 19.1933 68.6465 17.815 68.3822 16.4853C68.1178 15.1556 67.4653 13.9342 66.5071 12.9755C65.5489 12.0168 64.3281 11.364 62.9991 11.0995C61.67 10.835 60.2924 10.9707 59.0405 11.4896C57.7886 12.0084 56.7185 12.887 55.9657 14.0143C55.2129 15.1415 54.811 16.4669 54.811 17.8226C54.811 19.6406 55.5329 21.3842 56.8178 22.6697C58.1026 23.9553 59.8453 24.6775 61.6624 24.6775ZM61.6624 13.7097C62.4755 13.7097 63.2703 13.9509 63.9463 14.4029C64.6223 14.8548 65.1492 15.4971 65.4603 16.2487C65.7715 17.0002 65.8529 17.8272 65.6943 18.625C65.5357 19.4228 65.1441 20.1557 64.5692 20.7309C63.9943 21.3061 63.2618 21.6978 62.4644 21.8565C61.667 22.0152 60.8404 21.9337 60.0893 21.6224C59.3381 21.3111 58.6961 20.784 58.2444 20.1076C57.7927 19.4313 57.5516 18.6361 57.5516 17.8226C57.5516 16.7318 57.9847 15.6857 58.7556 14.9144C59.5266 14.143 60.5722 13.7097 61.6624 13.7097Z" fill="#E6CC46"/>
<path d="M37.2306 26.8026C37.3559 26.9893 37.5252 27.1422 37.7236 27.2479C37.9219 27.3536 38.1432 27.4089 38.3679 27.4089C38.5926 27.4089 38.8139 27.3536 39.0122 27.2479C39.2106 27.1422 39.3799 26.9893 39.5052 26.8026L40.4233 25.4317C41.7001 23.5116 43.4317 21.9373 45.4639 20.849C47.496 19.7606 49.7657 19.192 52.0707 19.1938V16.4518C49.3727 16.4562 46.7161 17.116 44.3292 18.3745C41.9423 19.633 39.8966 21.4526 38.3679 23.6768C36.5042 21.4071 34.1587 19.5811 31.5018 18.3314C28.8448 17.0817 25.943 16.4396 23.0071 16.4518H21.9246V19.1938H23.0071C25.8208 19.1924 28.5913 19.8861 31.0726 21.2135C33.5539 22.5409 35.6692 24.4607 37.2306 26.8026Z" fill="#E6CC46"/>
<path d="M19.1839 16.4517H16.4434V19.1936H19.1839V16.4517Z" fill="#E6CC46"/>
<path d="M53.4409 52.0969C54.289 52.0945 55.1156 51.8297 55.8074 51.3388C56.4992 50.8479 57.0224 50.155 57.3051 49.3549H68.5139V46.613H57.3051C57.017 45.819 56.4916 45.133 55.8003 44.6482C55.1089 44.1634 54.2851 43.9033 53.4409 43.9033C52.5966 43.9033 51.7728 44.1634 51.0815 44.6482C50.3901 45.133 49.8647 45.819 49.5767 46.613H16.4434V49.3549H49.5767C49.8594 50.155 50.3825 50.8479 51.0743 51.3388C51.7661 51.8297 52.5927 52.0945 53.4409 52.0969ZM53.4409 46.613C53.7119 46.613 53.9768 46.6934 54.2022 46.8441C54.4275 46.9947 54.6031 47.2088 54.7068 47.4593C54.8106 47.7098 54.8377 47.9855 54.7848 48.2514C54.732 48.5174 54.6014 48.7617 54.4098 48.9534C54.2182 49.1451 53.974 49.2757 53.7082 49.3286C53.4424 49.3815 53.1669 49.3543 52.9165 49.2506C52.6661 49.1468 52.4521 48.9711 52.3015 48.7456C52.151 48.5202 52.0706 48.2551 52.0706 47.984C52.0706 47.6204 52.215 47.2717 52.4719 47.0146C52.7289 46.7574 53.0775 46.613 53.4409 46.613Z" fill="#E6CC46"/>
</svg>
