<svg width="27" height="33" viewBox="0 0 27 33" fill="none" xmlns="http://www.w3.org/2000/svg">
<path d="M13.4999 16.4995C11.7644 16.4995 10.3444 15.0606 10.3444 13.302C10.3444 11.5433 11.7644 10.1044 13.4999 10.1044C15.2354 10.1044 16.6554 11.5433 16.6554 13.302C16.6554 15.0606 15.2354 16.4995 13.4999 16.4995ZM22.9663 13.6217C22.9663 7.81814 18.7853 3.70928 13.4999 3.70928C8.21444 3.70928 4.03342 7.81814 4.03342 13.6217C4.03342 17.3629 7.11002 22.3191 13.4999 28.2346C19.8897 22.3191 22.9663 17.3629 22.9663 13.6217ZM13.4999 0.511719C20.1264 0.511719 26.1218 5.65979 26.1218 13.6217C26.1218 18.9297 21.9093 25.2129 13.4999 32.4873C5.09051 25.2129 0.87793 18.9297 0.87793 13.6217C0.87793 5.65979 6.87336 0.511719 13.4999 0.511719Z" fill="#1B3512"/>
</svg>
