<svg width="29" height="29" viewBox="0 0 29 29" fill="none" xmlns="http://www.w3.org/2000/svg">
<path d="M5.82165 3.37417C5.91702 4.78877 6.15543 6.17157 6.5369 7.4908L4.62958 9.39812C3.97791 7.4908 3.56466 5.47222 3.42161 3.37417H5.82165ZM21.4934 22.4791C22.8445 22.8606 24.2273 23.099 25.626 23.1944V25.5626C23.5279 25.4196 21.5093 25.0063 19.5861 24.3706L21.4934 22.4791ZM7.34751 0.195312H1.7845C0.910312 0.195312 0.195068 0.910556 0.195068 1.78474C0.195068 16.7095 12.2906 28.8051 27.2154 28.8051C28.0896 28.8051 28.8048 28.0898 28.8048 27.2156V21.6685C28.8048 20.7943 28.0896 20.0791 27.2154 20.0791C25.2445 20.0791 23.3213 19.7612 21.5411 19.1731C21.3822 19.1095 21.2073 19.0936 21.0484 19.0936C20.6352 19.0936 20.2378 19.2526 19.9199 19.5546L16.4232 23.0513C11.9251 20.7467 8.23759 17.0751 5.94881 12.577L9.44556 9.08023C9.8906 8.63519 10.0178 8.01531 9.84291 7.45901C9.25482 5.67885 8.93694 3.77153 8.93694 1.78474C8.93694 0.910556 8.22169 0.195312 7.34751 0.195312Z" fill="#1B3512"/>
</svg>
