<svg width="11" height="11" viewBox="0 0 11 11" fill="none" xmlns="http://www.w3.org/2000/svg">
<path d="M5.49996 3.07584C4.16178 3.07584 3.07572 4.1619 3.07572 5.50008C3.07572 6.83826 4.16178 7.92432 5.49996 7.92432C6.83814 7.92432 7.9242 6.83826 7.9242 5.50008C7.9242 4.1619 6.83814 3.07584 5.49996 3.07584ZM0.651474 5.98493H1.62117C1.88784 5.98493 2.10602 5.76675 2.10602 5.50008C2.10602 5.23341 1.88784 5.01523 1.62117 5.01523H0.651474C0.384808 5.01523 0.166626 5.23341 0.166626 5.50008C0.166626 5.76675 0.384808 5.98493 0.651474 5.98493ZM9.37875 5.98493H10.3484C10.6151 5.98493 10.8333 5.76675 10.8333 5.50008C10.8333 5.23341 10.6151 5.01523 10.3484 5.01523H9.37875C9.11208 5.01523 8.8939 5.23341 8.8939 5.50008C8.8939 5.76675 9.11208 5.98493 9.37875 5.98493ZM5.01511 0.651597V1.62129C5.01511 1.88796 5.23329 2.10614 5.49996 2.10614C5.76663 2.10614 5.98481 1.88796 5.98481 1.62129V0.651597C5.98481 0.38493 5.76663 0.166748 5.49996 0.166748C5.23329 0.166748 5.01511 0.38493 5.01511 0.651597ZM5.01511 9.37887V10.3486C5.01511 10.6152 5.23329 10.8334 5.49996 10.8334C5.76663 10.8334 5.98481 10.6152 5.98481 10.3486V9.37887C5.98481 9.1122 5.76663 8.89402 5.49996 8.89402C5.23329 8.89402 5.01511 9.1122 5.01511 9.37887ZM2.58602 1.90251C2.39693 1.71341 2.08663 1.71341 1.90238 1.90251C1.71329 2.0916 1.71329 2.4019 1.90238 2.58614L2.41632 3.10008C2.60541 3.28917 2.91572 3.28917 3.09996 3.10008C3.2842 2.91099 3.28905 2.60069 3.09996 2.41644L2.58602 1.90251ZM8.5836 7.90008C8.39451 7.71099 8.0842 7.71099 7.89996 7.90008C7.71087 8.08917 7.71087 8.39948 7.89996 8.58372L8.4139 9.09766C8.60299 9.28675 8.91329 9.28675 9.09754 9.09766C9.28663 8.90857 9.28663 8.59826 9.09754 8.41402L8.5836 7.90008ZM9.09754 2.58614C9.28663 2.39705 9.28663 2.08675 9.09754 1.90251C8.90844 1.71341 8.59814 1.71341 8.4139 1.90251L7.89996 2.41644C7.71087 2.60554 7.71087 2.91584 7.89996 3.10008C8.08905 3.28432 8.39935 3.28917 8.5836 3.10008L9.09754 2.58614ZM3.09996 8.58372C3.28905 8.39463 3.28905 8.08432 3.09996 7.90008C2.91087 7.71099 2.60057 7.71099 2.41632 7.90008L1.90238 8.41402C1.71329 8.60311 1.71329 8.91341 1.90238 9.09766C2.09147 9.2819 2.40178 9.28675 2.58602 9.09766L3.09996 8.58372Z" fill="#5FC93A"/>
</svg>
