<svg width="85" height="85" viewBox="0 0 85 85" fill="none" xmlns="http://www.w3.org/2000/svg">
<path d="M79.6474 28.333H26.5491C25.1408 28.333 23.7903 28.8927 22.7945 29.889C21.7987 30.8853 21.2393 32.2365 21.2393 33.6455V79.6872C21.2393 81.0961 21.7987 82.4474 22.7945 83.4437C23.7903 84.4399 25.1408 84.9997 26.5491 84.9997H79.6474C81.0556 84.9997 82.4062 84.4399 83.402 83.4437C84.3978 82.4474 84.9572 81.0961 84.9572 79.6872V33.6455C84.9572 32.2365 84.3978 30.8853 83.402 29.889C82.4062 28.8927 81.0556 28.333 79.6474 28.333ZM81.4173 79.6872C81.4173 80.1568 81.2308 80.6072 80.8989 80.9393C80.567 81.2714 80.1168 81.458 79.6474 81.458H26.5491C26.0797 81.458 25.6295 81.2714 25.2975 80.9393C24.9656 80.6072 24.7791 80.1568 24.7791 79.6872V33.6455C24.7791 33.1759 24.9656 32.7254 25.2975 32.3933C25.6295 32.0612 26.0797 31.8747 26.5491 31.8747H79.6474C80.1168 31.8747 80.567 32.0612 80.8989 32.3933C81.2308 32.7254 81.4173 33.1759 81.4173 33.6455V79.6872Z" fill="#E6CC46"/>
<path d="M76.1067 35.4165H30.0882C29.6188 35.4165 29.1686 35.6031 28.8366 35.9352C28.5047 36.2673 28.3182 36.7177 28.3182 37.1873V47.8123C28.3182 48.282 28.5047 48.7324 28.8366 49.0645C29.1686 49.3966 29.6188 49.5832 30.0882 49.5832H76.1067C76.5761 49.5832 77.0263 49.3966 77.3582 49.0645C77.6901 48.7324 77.8766 48.282 77.8766 47.8123V37.1873C77.8766 36.7177 77.6901 36.2673 77.3582 35.9352C77.0263 35.6031 76.5761 35.4165 76.1067 35.4165ZM74.3367 46.0415H69.0269V42.4998H65.487V46.0415H61.9471V42.4998H58.4073V46.0415H54.8674V42.4998H51.3275V46.0415H47.7876V42.4998H44.2477V46.0415H40.7078V42.4998H37.1679V46.0415H31.8581V38.9582H74.3367V46.0415Z" fill="#E6CC46"/>
<path d="M37.1679 56.6667V53.125H33.6281V56.6667C32.2198 56.6667 30.8692 57.2264 29.8734 58.2227C28.8777 59.219 28.3182 60.5702 28.3182 61.9792C28.3182 63.3881 28.8777 64.7394 29.8734 65.7357C30.8692 66.732 32.2198 67.2917 33.6281 67.2917V77.9167H37.1679V67.2917C38.5762 67.2917 39.9268 66.732 40.9226 65.7357C41.9183 64.7394 42.4778 63.3881 42.4778 61.9792C42.4778 60.5702 41.9183 59.219 40.9226 58.2227C39.9268 57.2264 38.5762 56.6667 37.1679 56.6667ZM37.1679 63.75H33.6281C33.1586 63.75 32.7085 63.5634 32.3765 63.2313C32.0446 62.8992 31.8581 62.4488 31.8581 61.9792C31.8581 61.5095 32.0446 61.0591 32.3765 60.727C32.7085 60.3949 33.1586 60.2083 33.6281 60.2083H37.1679C37.6374 60.2083 38.0876 60.3949 38.4195 60.727C38.7514 61.0591 38.9379 61.5095 38.9379 61.9792C38.9379 62.4488 38.7514 62.8992 38.4195 63.2313C38.0876 63.5634 37.6374 63.75 37.1679 63.75Z" fill="#E6CC46"/>
<path d="M54.8689 63.75V53.125H51.329V63.75C49.9207 63.75 48.5702 64.3097 47.5744 65.306C46.5786 66.3023 46.0192 67.6535 46.0192 69.0625C46.0192 70.4715 46.5786 71.8227 47.5744 72.819C48.5702 73.8153 49.9207 74.375 51.329 74.375V77.9167H54.8689V74.375C56.2771 74.375 57.6277 73.8153 58.6235 72.819C59.6193 71.8227 60.1787 70.4715 60.1787 69.0625C60.1787 67.6535 59.6193 66.3023 58.6235 65.306C57.6277 64.3097 56.2771 63.75 54.8689 63.75ZM54.8689 70.8333H51.329C50.8596 70.8333 50.4094 70.6468 50.0775 70.3147C49.7455 69.9826 49.559 69.5322 49.559 69.0625C49.559 68.5928 49.7455 68.1424 50.0775 67.8103C50.4094 67.4782 50.8596 67.2917 51.329 67.2917H54.8689C55.3383 67.2917 55.7885 67.4782 56.1204 67.8103C56.4523 68.1424 56.6388 68.5928 56.6388 69.0625C56.6388 69.5322 56.4523 69.9826 56.1204 70.3147C55.7885 70.6468 55.3383 70.8333 54.8689 70.8333Z" fill="#E6CC46"/>
<path d="M72.5676 56.6667V53.125H69.0277V56.6667C67.6195 56.6667 66.2689 57.2264 65.2731 58.2227C64.2773 59.219 63.7179 60.5702 63.7179 61.9792C63.7179 63.3881 64.2773 64.7394 65.2731 65.7357C66.2689 66.732 67.6195 67.2917 69.0277 67.2917V77.9167H72.5676V67.2917C73.9759 67.2917 75.3264 66.732 76.3222 65.7357C77.318 64.7394 77.8774 63.3881 77.8774 61.9792C77.8774 60.5702 77.318 59.219 76.3222 58.2227C75.3264 57.2264 73.9759 56.6667 72.5676 56.6667ZM72.5676 63.75H69.0277C68.5583 63.75 68.1081 63.5634 67.7762 63.2313C67.4443 62.8992 67.2578 62.4488 67.2578 61.9792C67.2578 61.5095 67.4443 61.0591 67.7762 60.727C68.1081 60.3949 68.5583 60.2083 69.0277 60.2083H72.5676C73.037 60.2083 73.4872 60.3949 73.8191 60.727C74.1511 61.0591 74.3375 61.5095 74.3375 61.9792C74.3375 62.4488 74.1511 62.8992 73.8191 63.2313C73.4872 63.5634 73.037 63.75 72.5676 63.75Z" fill="#E6CC46"/>
<path d="M3.53988 51.3542V14.1667H60.178V24.7917H63.7179V5.3125C63.7179 3.90354 63.1585 2.55228 62.1627 1.55599C61.1669 0.559708 59.8163 0 58.4081 0L5.30983 0C3.90157 0 2.551 0.559708 1.55521 1.55599C0.559427 2.55228 0 3.90354 0 5.3125L0 51.3542C0 52.7631 0.559427 54.1144 1.55521 55.1107C2.551 56.1069 3.90157 56.6666 5.30983 56.6666H17.6994V53.125H5.30983C4.84041 53.125 4.39022 52.9384 4.05829 52.6063C3.72636 52.2742 3.53988 51.8238 3.53988 51.3542ZM36.436 10.625H30.8218L37.9015 3.54167H43.5158L36.436 10.625ZM48.5212 3.54167H54.1355L47.0557 10.625H41.4414L48.5212 3.54167ZM25.8164 10.625H20.2021L27.2819 3.54167H32.8961L25.8164 10.625ZM15.1967 10.625H9.58247L16.6622 3.54167H22.2765L15.1967 10.625ZM60.178 10.625H52.0611L59.017 3.66562C59.3557 3.78818 59.6487 4.01183 59.8564 4.30635C60.064 4.60088 60.1763 4.95208 60.178 5.3125V10.625ZM5.30983 3.54167H11.6568L4.57707 10.625H3.53988V5.3125C3.53988 4.84284 3.72636 4.39243 4.05829 4.06033C4.39022 3.72823 4.84041 3.54167 5.30983 3.54167Z" fill="#E6CC46"/>
<path d="M54.869 19.479H8.85046V23.0207H54.869V19.479Z" fill="#E6CC46"/>
</svg>
