<svg width="85" height="85" viewBox="0 0 85 85" fill="none" xmlns="http://www.w3.org/2000/svg">
<path d="M65.7727 5.48389H63.0321V10.9678H65.7727V5.48389Z" fill="#E6CC46"/>
<path d="M65.7727 13.7095H63.0321V19.1933H65.7727V13.7095Z" fill="#E6CC46"/>
<path d="M65.7727 21.9355H63.0321V27.4194H65.7727V21.9355Z" fill="#E6CC46"/>
<path d="M21.9245 5.48389H19.184V10.9678H21.9245V5.48389Z" fill="#E6CC46"/>
<path d="M21.9245 13.7095H19.184V19.1933H21.9245V13.7095Z" fill="#E6CC46"/>
<path d="M21.9245 21.9355H19.184V27.4194H21.9245V21.9355Z" fill="#E6CC46"/>
<path d="M83.587 71.2903H82.2167V27.4194C82.2167 25.9649 81.6392 24.5701 80.6113 23.5417C79.5834 22.5132 78.1893 21.9355 76.7356 21.9355H71.2545V1.37097C71.2545 1.00736 71.1101 0.658653 70.8531 0.401547C70.5961 0.144441 70.2476 0 69.8842 0H15.0731C14.7096 0 14.3611 0.144441 14.1041 0.401547C13.8472 0.658653 13.7028 1.00736 13.7028 1.37097V21.9355H8.22167C6.76799 21.9355 5.37385 22.5132 4.34594 23.5417C3.31803 24.5701 2.74056 25.9649 2.74056 27.4194V71.2903H1.37028C1.00686 71.2903 0.658322 71.4348 0.401345 71.6919C0.144368 71.949 0 72.2977 0 72.6613V78.1452C0.00217581 79.9625 0.724715 81.7048 2.00913 82.9899C3.29354 84.2749 5.03496 84.9978 6.85139 85H78.1059C79.9223 84.9978 81.6637 84.2749 82.9481 82.9899C84.2325 81.7048 84.9551 79.9625 84.9573 78.1452V72.6613C84.9573 72.2977 84.8129 71.949 84.5559 71.6919C84.2989 71.4348 83.9504 71.2903 83.587 71.2903ZM46.5895 44.6744L40.2369 38.3185C36.3873 34.4896 33.8938 29.5068 33.1361 24.129L50.133 41.129L46.5895 44.6744ZM34.8243 41.129L37.0619 38.8916C37.4661 39.3523 37.8622 39.8184 38.2952 40.2626L40.5411 42.5L38.3678 44.6744L34.8243 41.129ZM35.6272 22.7389V9.24169L47.9817 16.4516L36.2096 23.3215L35.6272 22.7389ZM45.7865 32.9032H49.4588C48.9998 33.6518 48.4839 34.3641 47.9159 35.0337L45.7865 32.9032ZM43.0459 30.1613L38.2129 25.3259L51.3854 17.6361C51.5924 17.5154 51.7642 17.3425 51.8836 17.1347C52.003 16.9269 52.0658 16.6913 52.0658 16.4516C52.0658 16.2119 52.003 15.9764 51.8836 15.7685C51.7642 15.5607 51.5924 15.3878 51.3854 15.2671L34.9421 5.67032C34.734 5.55011 34.4979 5.48677 34.2576 5.48665C34.0173 5.48652 33.7812 5.54963 33.573 5.66963C33.3648 5.78963 33.1918 5.9623 33.0713 6.17033C32.9508 6.37835 32.8872 6.61442 32.8867 6.85484V19.9969L32.4852 19.5952C32.2936 19.4036 32.0494 19.273 31.7836 19.2202C31.5179 19.1673 31.2424 19.1944 30.9921 19.2982C30.7417 19.4019 30.5277 19.5776 30.3771 19.803C30.2266 20.0284 30.1462 20.2934 30.1461 20.5645C30.1518 23.84 30.7353 27.0888 31.8699 30.1613H27.4056V2.74194H57.5517V30.1613H43.0459ZM60.2922 2.74194H68.5139V30.1613H60.2922V2.74194ZM16.4433 2.74194H24.665V30.1613H16.4433V2.74194ZM33.0443 32.9032C33.7066 34.2392 34.476 35.5193 35.345 36.731L31.9193 40.1584C31.6624 40.4155 31.5181 40.7641 31.5181 41.1277C31.5181 41.4912 31.6624 41.8398 31.9193 42.0969L33.6897 43.871L30.1722 47.3902C29.3369 46.8863 28.3809 46.6177 27.4056 46.6129C26.3215 46.6129 25.2618 46.9345 24.3604 47.5371C23.4591 48.1397 22.7565 48.9961 22.3417 49.9982C21.9268 51.0002 21.8183 52.1029 22.0298 53.1666C22.2413 54.2304 22.7633 55.2075 23.5298 55.9745C24.2964 56.7414 25.273 57.2637 26.3363 57.4753C27.3995 57.6869 28.5016 57.5783 29.5031 57.1632C30.5046 56.7481 31.3607 56.0453 31.9629 55.1435C32.5652 54.2416 32.8867 53.1814 32.8867 52.0968C32.8819 51.1209 32.6134 50.1645 32.1097 49.3288L35.6272 45.8095L37.399 47.5822C37.656 47.8392 38.0044 47.9836 38.3678 47.9836C38.7311 47.9836 39.0796 47.8392 39.3366 47.5822L42.4786 44.4386L45.6207 47.5822C45.8776 47.8392 46.2261 47.9836 46.5895 47.9836C46.9528 47.9836 47.3013 47.8392 47.5582 47.5822L49.33 45.8095L52.8475 49.3288C52.3438 50.1645 52.0753 51.1209 52.0706 52.0968C52.0706 53.1814 52.392 54.2416 52.9943 55.1435C53.5966 56.0453 54.4526 56.7481 55.4542 57.1632C56.4557 57.5783 57.5578 57.6869 58.621 57.4753C59.6842 57.2637 60.6609 56.7414 61.4274 55.9745C62.194 55.2075 62.716 54.2304 62.9275 53.1666C63.139 52.1029 63.0304 51.0002 62.6156 49.9982C62.2007 48.9961 61.4982 48.1397 60.5968 47.5371C59.6955 46.9345 58.6357 46.6129 57.5517 46.6129C56.5763 46.6177 55.6204 46.8863 54.7851 47.3902L51.2676 43.871L53.0394 42.0983C53.2962 41.8412 53.4406 41.4926 53.4406 41.129C53.4406 40.7655 53.2962 40.4169 53.0394 40.1598L49.8548 36.9723C50.9315 35.7334 51.8519 34.3668 52.5954 32.9032H69.8842C70.2476 32.9032 70.5961 32.7588 70.8531 32.5017C71.1101 32.2446 71.2545 31.8959 71.2545 31.5323V30.1613H73.995V65.8065H10.9622V30.1613H13.7028V31.5323C13.7028 31.8959 13.8472 32.2446 14.1041 32.5017C14.3611 32.7588 14.7096 32.9032 15.0731 32.9032H33.0443ZM30.1461 52.0968C30.1461 52.6391 29.9854 53.1692 29.6843 53.6201C29.3831 54.071 28.9551 54.4225 28.4543 54.63C27.9536 54.8375 27.4025 54.8918 26.8709 54.786C26.3393 54.6802 25.851 54.4191 25.4677 54.0356C25.0844 53.6522 24.8234 53.1636 24.7177 52.6317C24.6119 52.0998 24.6662 51.5485 24.8736 51.0475C25.081 50.5465 25.4323 50.1182 25.883 49.8169C26.3337 49.5156 26.8635 49.3548 27.4056 49.3548C28.1324 49.3548 28.8295 49.6437 29.3434 50.1579C29.8574 50.6721 30.1461 51.3696 30.1461 52.0968ZM57.5517 49.3548C58.0937 49.3548 58.6236 49.5156 59.0743 49.8169C59.5249 50.1182 59.8762 50.5465 60.0836 51.0475C60.2911 51.5485 60.3453 52.0998 60.2396 52.6317C60.1338 53.1636 59.8728 53.6522 59.4896 54.0356C59.1063 54.4191 58.618 54.6802 58.0863 54.786C57.5547 54.8918 57.0037 54.8375 56.5029 54.63C56.0022 54.4225 55.5741 54.071 55.273 53.6201C54.9719 53.1692 54.8111 52.6391 54.8111 52.0968C54.8111 51.3696 55.0999 50.6721 55.6138 50.1579C56.1278 49.6437 56.8248 49.3548 57.5517 49.3548ZM5.48111 27.4194C5.48111 26.6921 5.76985 25.9947 6.2838 25.4805C6.79776 24.9663 7.49483 24.6774 8.22167 24.6774H13.7028V27.4194H9.59195C9.22853 27.4194 8.87999 27.5638 8.62301 27.8209C8.36604 28.078 8.22167 28.4267 8.22167 28.7903V67.1774C8.22167 67.541 8.36604 67.8897 8.62301 68.1468C8.87999 68.4039 9.22853 68.5484 9.59195 68.5484H75.3653C75.7287 68.5484 76.0773 68.4039 76.3342 68.1468C76.5912 67.8897 76.7356 67.541 76.7356 67.1774V28.7903C76.7356 28.4267 76.5912 28.078 76.3342 27.8209C76.0773 27.5638 75.7287 27.4194 75.3653 27.4194H71.2545V24.6774H76.7356C77.4624 24.6774 78.1595 24.9663 78.6734 25.4805C79.1874 25.9947 79.4761 26.6921 79.4761 27.4194V71.2903H5.48111V27.4194ZM32.8867 74.0323H52.0706V75.4032C52.0706 75.7668 51.9262 76.1155 51.6692 76.3726C51.4123 76.6298 51.0637 76.7742 50.7003 76.7742H34.257C33.8935 76.7742 33.545 76.6298 33.288 76.3726C33.031 76.1155 32.8867 75.7668 32.8867 75.4032V74.0323ZM82.2167 78.1452C82.2167 79.236 81.7836 80.2821 81.0127 81.0534C80.2417 81.8247 79.1961 82.2581 78.1059 82.2581H6.85139C5.76113 82.2581 4.71552 81.8247 3.94459 81.0534C3.17366 80.2821 2.74056 79.236 2.74056 78.1452V74.0323H30.1461V75.4032C30.1461 76.494 30.5792 77.5402 31.3502 78.3115C32.1211 79.0828 33.1667 79.5161 34.257 79.5161H50.7003C51.7906 79.5161 52.8362 79.0828 53.6071 78.3115C54.378 77.5402 54.8111 76.494 54.8111 75.4032V74.0323H82.2167V78.1452Z" fill="#E6CC46"/>
<path d="M8.22078 76.7744H5.48022V79.5163H8.22078V76.7744Z" fill="#E6CC46"/>
<path d="M13.701 76.7744H10.9604V79.5163H13.701V76.7744Z" fill="#E6CC46"/>
</svg>
