<svg width="48" height="47" viewBox="0 0 48 47" fill="none" xmlns="http://www.w3.org/2000/svg">
<rect x="0.758545" width="46.3103" height="46.3103" rx="5" fill="#FF4291"/>
<path d="M30.4046 15.2057C30.1161 15.2057 29.8341 15.2912 29.5942 15.4515C29.3543 15.6118 29.1674 15.8396 29.057 16.1061C28.9466 16.3726 28.9177 16.6659 28.974 16.9489C29.0303 17.2318 29.1692 17.4917 29.3732 17.6957C29.5772 17.8997 29.8371 18.0386 30.12 18.0949C30.403 18.1512 30.6962 18.1223 30.9628 18.0119C31.2293 17.9015 31.4571 17.7145 31.6174 17.4747C31.7777 17.2348 31.8632 16.9528 31.8632 16.6643C31.8632 16.2775 31.7095 15.9065 31.436 15.6329C31.1624 15.3594 30.7914 15.2057 30.4046 15.2057ZM35.996 18.1472C35.9723 17.1387 35.7834 16.1409 35.4368 15.1935C35.1278 14.3829 34.6467 13.649 34.0268 13.0421C33.4249 12.419 32.6892 11.941 31.8754 11.6442C30.9305 11.2871 29.9316 11.0939 28.9216 11.0729C27.6332 11 27.2199 11 23.9137 11C20.6075 11 20.1942 11 18.9058 11.0729C17.8959 11.0939 16.897 11.2871 15.9521 11.6442C15.1397 11.944 14.4046 12.4216 13.8006 13.0421C13.1776 13.644 12.6996 14.3797 12.4028 15.1935C12.0456 16.1384 11.8524 17.1373 11.8315 18.1472C11.7585 19.4357 11.7585 19.849 11.7585 23.1552C11.7585 26.4614 11.7585 26.8747 11.8315 28.1631C11.8524 29.173 12.0456 30.1719 12.4028 31.1168C12.6996 31.9307 13.1776 32.6664 13.8006 33.2683C14.4046 33.8887 15.1397 34.3663 15.9521 34.6661C16.897 35.0233 17.8959 35.2165 18.9058 35.2374C20.1942 35.3103 20.6075 35.3103 23.9137 35.3103C27.2199 35.3103 27.6332 35.3103 28.9216 35.2374C29.9316 35.2165 30.9305 35.0233 31.8754 34.6661C32.6892 34.3693 33.4249 33.8913 34.0268 33.2683C34.6495 32.6637 35.1309 31.929 35.4368 31.1168C35.7834 30.1694 35.9723 29.1716 35.996 28.1631C35.996 26.8747 36.0689 26.4614 36.0689 23.1552C36.0689 19.849 36.0689 19.4357 35.996 18.1472ZM33.808 28.0172C33.7992 28.7888 33.6594 29.5533 33.3948 30.2781C33.2007 30.8071 32.889 31.2851 32.4831 31.6759C32.0889 32.0777 31.6119 32.3888 31.0853 32.5876C30.3605 32.8523 29.596 32.992 28.8244 33.0009C27.6089 33.0616 27.1591 33.0738 23.9623 33.0738C20.7655 33.0738 20.3158 33.0738 19.1003 33.0009C18.2991 33.0159 17.5014 32.8925 16.7422 32.6362C16.2387 32.4272 15.7836 32.1169 15.4051 31.7246C15.0017 31.3341 14.6938 30.8557 14.5056 30.3267C14.2089 29.5915 14.0443 28.8097 14.0194 28.0172C14.0194 26.8017 13.9465 26.352 13.9465 23.1552C13.9465 19.9584 13.9465 19.5086 14.0194 18.2931C14.0249 17.5043 14.1689 16.7226 14.4448 15.9836C14.6588 15.4706 14.9873 15.0132 15.4051 14.6466C15.7744 14.2286 16.2308 13.8967 16.7422 13.6741C17.4831 13.4068 18.264 13.267 19.0516 13.2609C20.2672 13.2609 20.7169 13.1879 23.9137 13.1879C27.1105 13.1879 27.5603 13.1879 28.7758 13.2609C29.5474 13.2697 30.3118 13.4095 31.0366 13.6741C31.589 13.8791 32.0848 14.2124 32.4831 14.6466C32.8814 15.0199 33.1927 15.4764 33.3948 15.9836C33.6649 16.7238 33.8047 17.5052 33.808 18.2931C33.8688 19.5086 33.881 19.9584 33.881 23.1552C33.881 26.352 33.8688 26.8017 33.808 28.0172ZM23.9137 16.9196C22.681 16.922 21.4766 17.2897 20.4527 17.9764C19.4289 18.663 18.6315 19.6377 18.1614 20.7773C17.6914 21.9169 17.5696 23.1703 17.8116 24.3791C18.0535 25.5879 18.6484 26.6978 19.5209 27.5687C20.3935 28.4395 21.5046 29.0322 22.7138 29.2718C23.9231 29.5115 25.1762 29.3873 26.3149 28.9149C27.4536 28.4426 28.4268 27.6434 29.1114 26.6182C29.7961 25.593 30.1615 24.3879 30.1615 23.1552C30.1631 22.3348 30.0025 21.5223 29.6889 20.7642C29.3754 20.0061 28.915 19.3176 28.3344 18.738C27.7538 18.1585 27.0643 17.6995 26.3056 17.3875C25.5469 17.0754 24.7341 16.9164 23.9137 16.9196ZM23.9137 27.2028C23.1132 27.2028 22.3306 26.9655 21.665 26.5207C20.9993 26.0759 20.4805 25.4438 20.1742 24.7042C19.8678 23.9645 19.7876 23.1507 19.9438 22.3655C20.1 21.5803 20.4855 20.8591 21.0516 20.293C21.6177 19.727 22.3389 19.3415 23.1241 19.1853C23.9092 19.0291 24.7231 19.1093 25.4627 19.4156C26.2023 19.722 26.8345 20.2408 27.2792 20.9064C27.724 21.572 27.9614 22.3546 27.9614 23.1552C27.9614 23.6867 27.8567 24.2131 27.6533 24.7042C27.4499 25.1952 27.1517 25.6414 26.7759 26.0173C26.4 26.3932 25.9538 26.6913 25.4627 26.8947C24.9716 27.0982 24.4453 27.2028 23.9137 27.2028Z" fill="white"/>
</svg>
