<svg width="106" height="85" viewBox="0 0 106 85" fill="none" xmlns="http://www.w3.org/2000/svg">
<path fill-rule="evenodd" clip-rule="evenodd" d="M13.0596 14.2479C12.5267 14.2974 12.032 14.5416 11.6726 14.9325C11.3133 15.3233 11.1153 15.8325 11.1176 16.3599V82.8881C11.1176 83.4483 11.3434 83.9855 11.7453 84.3816C12.1472 84.7776 12.6922 85.0001 13.2606 85.0001H103.266C103.835 85.0001 104.38 84.7776 104.782 84.3816C105.184 83.9855 105.409 83.4483 105.409 82.8881V16.3599C105.409 15.7998 105.184 15.2627 104.782 14.8666C104.38 14.4705 103.835 14.248 103.266 14.2479H13.2606C13.1936 14.2448 13.1265 14.2448 13.0596 14.2479ZM15.4036 18.472H101.123V67.7411L68.5096 48.337C68.1471 48.1217 67.7272 48.0182 67.3042 48.04C66.8203 48.0639 66.3593 48.2503 65.9984 48.568L52.839 60.5471L34.791 42.298C34.5689 42.0803 34.3004 41.9141 34.0051 41.8114C33.7097 41.7086 33.3948 41.6719 33.0833 41.704C32.7223 41.7379 32.3763 41.863 32.0787 42.067L15.4036 53.9141V18.472ZM33.0162 46.489L66.8355 80.7761H15.4036V59.0621C15.4378 59.0409 15.4714 59.0187 15.5043 58.9956L33.0162 46.489ZM67.706 52.726L101.123 72.6251V80.7761H72.7956L55.7522 63.5171L67.706 52.726Z" fill="#E6CC46"/>
<path fill-rule="evenodd" clip-rule="evenodd" d="M83.1777 28.1821C79.5132 28.2434 76.7745 31.0742 76.7487 34.6144C76.8376 38.2646 80.0536 40.9961 83.1777 41.0466C86.7997 41.0466 89.6511 38.1725 89.6066 34.6144C89.6238 31.0058 86.4361 28.2151 83.1777 28.1821ZM83.1777 32.4703C84.6876 32.4703 85.2939 33.4261 85.3206 34.6144C85.3205 35.7474 84.6314 36.712 83.1777 36.7584C81.7538 36.7842 81.0347 35.9046 81.0347 34.6144C81.0936 33.3162 81.6608 32.48 83.1777 32.4703Z" fill="#E6CC46"/>
<ellipse cx="14.967" cy="14.967" rx="14.967" ry="14.967" fill="white"/>
<path d="M9.0613 9.0427H8.3113V9.7927V34.7146V35.4646H9.0613H33.1922H33.9422V34.7146V9.7927V9.0427H33.1922H9.0613ZM29.0276 28.4071L29.6624 28.0449L29.3167 27.4009L28.5916 26.0505C29.6264 25.0968 30.2778 23.7146 30.2778 22.1841C30.2778 19.3471 28.0284 16.9785 25.2204 16.9785C22.4136 16.9785 20.1579 19.346 20.9079 22.1841C20.1579 25.0238 22.4151 27.3827 25.2204 27.3827C25.3565 27.3827 25.4906 27.3766 25.6226 27.3653L26.4873 28.9717L26.8517 29.6486L27.5194 29.2676L29.0276 28.4071ZM12.5103 17.0516H11.7603V17.8016V26.704V27.454H12.5103H14.2339H14.9839V26.704V23.8937H16.9329V26.704V27.454H17.6829H19.4065H20.1565V26.704V17.8016V17.0516H19.4065H17.6829H16.9329V17.8016V20.6136H14.9839V17.8016V17.0516H14.2339H12.5103ZM23.6744 23.2279C23.4895 22.9316 23.3816 22.575 23.3816 22.1841C23.3816 21.0901 24.2191 20.2604 25.2204 20.2604C26.2198 20.2604 27.0542 21.0882 27.0542 22.1841C27.0542 22.4486 27.0036 22.6975 26.9124 22.9231L26.6386 22.4133L26.2732 21.7331L25.6039 22.1181L24.0957 22.9855L23.6744 23.2279ZM1.19312 22.2554C1.19313 10.8595 10.1489 1.64551 21.1251 1.64551C32.1013 1.64551 41.057 10.8595 41.057 22.2554C41.057 33.6513 32.1013 42.8652 21.1251 42.8652C10.1488 42.8652 1.19311 33.6513 1.19312 22.2554ZM30.7186 32.1827H11.5366V12.3228H30.7186V32.1827Z" fill="white" stroke="#E6CC46" stroke-width="1.5"/>
</svg>
