<svg width="11" height="11" viewBox="0 0 11 11" fill="none" xmlns="http://www.w3.org/2000/svg">
<path d="M5.33333 2.90909C3.99515 2.90909 2.90909 3.99515 2.90909 5.33333C2.90909 6.67151 3.99515 7.75758 5.33333 7.75758C6.67152 7.75758 7.75758 6.67151 7.75758 5.33333C7.75758 3.99515 6.67152 2.90909 5.33333 2.90909ZM0.484848 5.81818H1.45455C1.72121 5.81818 1.93939 5.6 1.93939 5.33333C1.93939 5.06667 1.72121 4.84848 1.45455 4.84848H0.484848C0.218182 4.84848 0 5.06667 0 5.33333C0 5.6 0.218182 5.81818 0.484848 5.81818ZM9.21212 5.81818H10.1818C10.4485 5.81818 10.6667 5.6 10.6667 5.33333C10.6667 5.06667 10.4485 4.84848 10.1818 4.84848H9.21212C8.94545 4.84848 8.72727 5.06667 8.72727 5.33333C8.72727 5.6 8.94545 5.81818 9.21212 5.81818ZM4.84848 0.484848V1.45455C4.84848 1.72121 5.06667 1.93939 5.33333 1.93939C5.6 1.93939 5.81818 1.72121 5.81818 1.45455V0.484848C5.81818 0.218182 5.6 0 5.33333 0C5.06667 0 4.84848 0.218182 4.84848 0.484848ZM4.84848 9.21212V10.1818C4.84848 10.4485 5.06667 10.6667 5.33333 10.6667C5.6 10.6667 5.81818 10.4485 5.81818 10.1818V9.21212C5.81818 8.94545 5.6 8.72727 5.33333 8.72727C5.06667 8.72727 4.84848 8.94545 4.84848 9.21212ZM2.41939 1.73576C2.2303 1.54667 1.92 1.54667 1.73576 1.73576C1.54667 1.92485 1.54667 2.23515 1.73576 2.41939L2.2497 2.93333C2.43879 3.12242 2.74909 3.12242 2.93333 2.93333C3.11758 2.74424 3.12242 2.43394 2.93333 2.2497L2.41939 1.73576ZM8.41697 7.73333C8.22788 7.54424 7.91758 7.54424 7.73333 7.73333C7.54424 7.92242 7.54424 8.23273 7.73333 8.41697L8.24727 8.93091C8.43636 9.12 8.74667 9.12 8.93091 8.93091C9.12 8.74182 9.12 8.43151 8.93091 8.24727L8.41697 7.73333ZM8.93091 2.41939C9.12 2.2303 9.12 1.92 8.93091 1.73576C8.74182 1.54667 8.43152 1.54667 8.24727 1.73576L7.73333 2.2497C7.54424 2.43879 7.54424 2.74909 7.73333 2.93333C7.92242 3.11758 8.23273 3.12242 8.41697 2.93333L8.93091 2.41939ZM2.93333 8.41697C3.12242 8.22788 3.12242 7.91758 2.93333 7.73333C2.74424 7.54424 2.43394 7.54424 2.2497 7.73333L1.73576 8.24727C1.54667 8.43636 1.54667 8.74667 1.73576 8.93091C1.92485 9.11515 2.23515 9.12 2.41939 8.93091L2.93333 8.41697Z" fill="#1B3513"/>
</svg>
